<svg width="80" height="24" viewBox="0 0 80 24" fill="none" xmlns="http://www.w3.org/2000/svg">
<g clip-path="url(#clip0_748_1031)">
<path d="M8.50992 9.3421C8.42075 9.36377 8.33931 9.4097 8.27452 9.47484L5.34526 12.4169C5.28331 12.4791 5.23878 12.5567 5.21614 12.6417C5.19351 12.7267 5.19358 12.8163 5.21633 12.9015L6.29454 16.9262C6.31734 17.0114 6.36205 17.0891 6.42419 17.1515C6.48632 17.2139 6.56368 17.2588 6.64849 17.2817L10.6559 18.3643C10.7407 18.3872 10.83 18.3873 10.9148 18.3646C10.9995 18.3419 11.0768 18.2972 11.1387 18.2349L14.0681 15.2932C14.1301 15.2309 14.1746 15.1534 14.1973 15.0682C14.2199 14.9831 14.2198 14.8935 14.1969 14.8083L13.1187 10.7836C13.0959 10.6985 13.0511 10.6209 12.989 10.5585C12.9269 10.4962 12.8496 10.4513 12.7649 10.4285L8.7573 9.34546C8.67641 9.3234 8.59134 9.32252 8.50992 9.3421ZM8.77845 10.3902L12.2285 11.3224L13.1567 14.7872L10.6348 17.3196L7.18482 16.3877L6.2566 12.9229L8.77845 10.3902Z" fill="#FFCC4B"/>
<path d="M15.4708 7.4759C15.3817 7.49757 15.3002 7.5435 15.2354 7.60864L12.3062 10.5507C12.2442 10.6129 12.1997 10.6905 12.1771 10.7755C12.1545 10.8605 12.1545 10.9501 12.1773 11.0353L13.2555 15.06C13.2783 15.1452 13.323 15.2229 13.3851 15.2853C13.4473 15.3477 13.5246 15.3926 13.6094 15.4155L17.6169 16.4981C17.7017 16.521 17.7909 16.5211 17.8757 16.4984C17.9604 16.4757 18.0377 16.431 18.0997 16.3687L21.029 13.427C21.091 13.3647 21.1356 13.2872 21.1582 13.202C21.1808 13.1169 21.1807 13.0273 21.1579 12.9421L20.0796 8.91737C20.0568 8.83227 20.0121 8.75467 19.95 8.69234C19.8879 8.63 19.8105 8.58514 19.7258 8.56226L15.7182 7.47924C15.6373 7.45718 15.5523 7.45632 15.4708 7.4759ZM15.7394 8.52398L19.1895 9.45616L20.1177 12.921L17.5957 15.4534L14.1458 14.5215L13.2175 11.0567L15.7394 8.52398Z" fill="#FFCC4B"/>
<path d="M10.3888 2.40265C10.2997 2.42432 10.2182 2.47026 10.1534 2.53541L7.22416 5.47749C7.16221 5.53969 7.11768 5.61722 7.09505 5.70227C7.07242 5.78731 7.07248 5.87688 7.09523 5.962L8.17344 9.98675C8.19624 10.0719 8.24095 10.1496 8.30309 10.212C8.36522 10.2744 8.44258 10.3193 8.52739 10.3422L12.5349 11.4249C12.6197 11.4478 12.7089 11.4479 12.7937 11.4252C12.8784 11.4025 12.9557 11.3577 13.0176 11.2955L15.947 8.35373C16.009 8.29149 16.0535 8.21392 16.0762 8.1288C16.0988 8.04369 16.0987 7.95404 16.0758 7.86888L14.9976 3.84413C14.9748 3.75904 14.9301 3.68142 14.8679 3.61909C14.8058 3.55675 14.7285 3.51189 14.6438 3.48901L10.6362 2.40601C10.5553 2.38395 10.4702 2.38307 10.3888 2.40265ZM10.6574 3.45073L14.1074 4.38293L15.0356 7.8478L12.5137 10.3801L9.06373 9.4483L8.13551 5.98343L10.6574 3.45073Z" fill="#FFCC4B"/>
<path d="M17.3389 0.539854C17.2498 0.561529 17.1683 0.607454 17.1035 0.672598L14.1743 3.6147C14.1123 3.6769 14.0678 3.75441 14.0452 3.83946C14.0225 3.9245 14.0226 4.01409 14.0453 4.09921L15.1236 8.12395C15.1463 8.20912 15.1911 8.28682 15.2532 8.34922C15.3153 8.41162 15.3927 8.45652 15.4775 8.47942L19.485 9.56207C19.5698 9.58499 19.659 9.5851 19.7438 9.56238C19.8285 9.53967 19.9058 9.49494 19.9677 9.43268L22.8971 6.49094C22.9591 6.4287 23.0037 6.35111 23.0263 6.266C23.0489 6.18088 23.0488 6.09123 23.0259 6.00607L21.9477 1.98133C21.9249 1.89623 21.8802 1.81863 21.818 1.75629C21.7559 1.69396 21.6786 1.6491 21.5939 1.62622L17.5863 0.543213C17.5054 0.521154 17.4204 0.520275 17.3389 0.539854ZM17.6075 1.58794L21.0575 2.52013L21.9858 5.98499L19.4638 8.51734L16.0138 7.58549L15.0856 4.12062L17.6075 1.58794ZM13.5984 14.4341C13.5093 14.4557 13.4278 14.5017 13.363 14.5668L10.4338 17.5089C10.3718 17.5711 10.3273 17.6486 10.3047 17.7337C10.282 17.8187 10.2821 17.9083 10.3049 17.9934L11.3831 22.0182C11.4059 22.1033 11.4506 22.181 11.5127 22.2434C11.5749 22.3058 11.6522 22.3507 11.737 22.3736L15.7445 23.4563C15.8293 23.4792 15.9185 23.4793 16.0033 23.4566C16.088 23.4339 16.1653 23.3891 16.2273 23.3269L19.1566 20.3852C19.2186 20.3229 19.2632 20.2453 19.2858 20.1602C19.3084 20.0751 19.3083 19.9855 19.2854 19.9003L18.2072 15.8755C18.1844 15.7904 18.1397 15.7128 18.0776 15.6505C18.0154 15.5882 17.9381 15.5433 17.8534 15.5204L13.8458 14.4374C13.7649 14.4154 13.6799 14.4145 13.5984 14.4341ZM13.867 15.4822L17.3171 16.4143L18.2453 19.8792L15.7233 22.4116L12.2734 21.4797L11.3451 18.0148L13.867 15.4822ZM3.43569 4.26598C3.34652 4.28765 3.26508 4.33359 3.20029 4.39874L0.271044 7.34082C0.209088 7.40302 0.164556 7.48055 0.141925 7.5656C0.119295 7.65064 0.11936 7.74021 0.142113 7.82533L1.22032 11.8501C1.24312 11.9352 1.28783 12.0129 1.34997 12.0753C1.4121 12.1377 1.48946 12.1826 1.57427 12.2055L5.58173 13.2882C5.66653 13.3111 5.75579 13.3112 5.84054 13.2885C5.92529 13.2658 6.00254 13.2211 6.06452 13.1588L8.99386 10.2171C9.05586 10.1548 9.10042 10.0772 9.12303 9.99213C9.14565 9.90702 9.14553 9.81736 9.1227 9.7322L8.0445 5.70747C8.02165 5.62237 7.97692 5.54475 7.91481 5.48242C7.8527 5.42009 7.77538 5.37522 7.69064 5.35234L3.68308 4.26934C3.60219 4.24728 3.51712 4.2464 3.43569 4.26598ZM3.70423 5.31406L7.1543 6.24626L8.08252 9.71113L5.56058 12.2435L2.1106 11.3116L1.18238 7.84676L3.70423 5.31406ZM22.7541 14.8516C22.6333 14.8572 22.5186 14.9064 22.4312 14.99C22.4312 14.99 22.0197 15.3827 21.5841 15.8722C21.3663 16.1169 21.141 16.3861 20.9511 16.6546C20.7612 16.9232 20.5985 17.1748 20.5267 17.4888C20.3069 18.4491 20.807 19.4559 21.7336 19.7421C22.6602 20.0283 23.614 19.3921 23.8337 18.4318C23.9056 18.1178 23.8721 17.8178 23.8227 17.4796C23.7733 17.1413 23.6925 16.7803 23.6086 16.4443C23.4408 15.7722 23.2524 15.1967 23.2524 15.1967C23.2185 15.0926 23.1514 15.0026 23.0614 14.9402C22.9714 14.8779 22.8635 14.8468 22.7541 14.8516ZM22.5345 16.3261C22.5809 16.4901 22.5897 16.4932 22.6379 16.686C22.7168 17.0019 22.7899 17.3378 22.8316 17.6235C22.8734 17.9093 22.868 18.1623 22.8574 18.2085C22.7474 18.6891 22.3895 18.8976 22.0288 18.7862C21.6681 18.6747 21.3929 18.1927 21.5029 17.7121C21.5135 17.6659 21.6127 17.4546 21.7686 17.2341C21.9246 17.0136 22.1293 16.7655 22.3315 16.5384C22.4353 16.4217 22.4392 16.4269 22.5345 16.3261ZM2.80274 13.5321C2.7003 13.5359 2.60149 13.571 2.51965 13.6327C2.43781 13.6944 2.37687 13.7798 2.34506 13.8772C2.34506 13.8772 2.15668 14.4527 1.98888 15.1247C1.90499 15.4608 1.82607 15.8218 1.77665 16.16C1.72724 16.4983 1.69371 16.7983 1.76558 17.1123C1.98535 18.0726 2.93914 18.7088 3.86573 18.4226C4.79233 18.1364 5.29244 17.1295 5.07267 16.1693C5.0008 15.8552 4.83813 15.6036 4.64821 15.3351C4.45828 15.0666 4.233 14.7974 4.01521 14.5526C3.57963 14.0632 3.16814 13.6705 3.16814 13.6705C3.11961 13.6241 3.06226 13.588 2.99949 13.5642C2.93672 13.5404 2.86981 13.5295 2.80274 13.5321ZM3.06479 15.0066C3.16009 15.1074 3.16394 15.1022 3.2678 15.2189C3.46996 15.446 3.67471 15.6941 3.83066 15.9146C3.98662 16.1351 4.08584 16.3464 4.09641 16.3926C4.20641 16.8732 3.9293 17.3552 3.56861 17.4666C3.20793 17.578 2.85183 17.3696 2.74184 16.889C2.73126 16.8428 2.72594 16.5897 2.76767 16.304C2.80942 16.0183 2.88258 15.6842 2.96145 15.3683C3.00977 15.1748 3.01829 15.1711 3.06479 15.0066Z" fill="#FFCC4B"/>
</g>
<path d="M34.156 11.704C34.148 11.576 34.144 11.384 34.144 11.128V10.672C34.144 10.368 34.136 10.14 34.12 9.988C34.104 9.86 34.096 9.528 34.096 8.992C34.096 8.8 34.152 8.652 34.264 8.548C34.384 8.436 34.544 8.38 34.744 8.38C35 8.38 35.172 8.436 35.26 8.548C35.348 8.66 35.392 8.844 35.392 9.1V9.556L35.38 10.876C35.372 11.132 35.368 11.516 35.368 12.028L35.38 13.012C35.388 13.164 35.392 13.376 35.392 13.648C35.392 13.864 35.4 14.172 35.416 14.572C35.432 14.94 35.44 15.216 35.44 15.4C35.44 15.552 35.396 15.692 35.308 15.82C35.228 15.948 35.116 16.012 34.972 16.012C34.412 16.012 34.132 15.824 34.132 15.448C34.132 15.24 34.14 15.008 34.156 14.752C34.172 14.568 34.18 14.288 34.18 13.912C34.18 13.648 34.172 13.268 34.156 12.772C33.78 12.804 33.132 12.82 32.212 12.82C31.636 12.82 31.188 12.82 30.868 12.82C30.548 12.812 30.316 12.792 30.172 12.76L30.16 14.14C30.16 14.228 30.18 14.464 30.22 14.848C30.26 15.104 30.28 15.328 30.28 15.52C30.28 15.64 30.208 15.756 30.064 15.868C29.928 15.972 29.8 16.024 29.68 16.024C29.392 16.024 29.196 15.956 29.092 15.82C28.988 15.676 28.936 15.46 28.936 15.172L28.924 14.224C28.916 14.112 28.912 13.956 28.912 13.756C28.912 13.46 28.904 13.056 28.888 12.544C28.872 12.08 28.864 11.744 28.864 11.536C28.864 11.224 28.872 10.788 28.888 10.228C28.904 9.7 28.912 9.308 28.912 9.052C28.912 8.796 28.976 8.624 29.104 8.536C29.232 8.448 29.376 8.404 29.536 8.404C29.984 8.404 30.208 8.552 30.208 8.848C30.208 9.376 30.196 9.88 30.172 10.36C30.156 10.968 30.148 11.412 30.148 11.692C30.38 11.748 30.624 11.784 30.88 11.8C31.136 11.816 31.496 11.824 31.96 11.824C32.904 11.824 33.636 11.784 34.156 11.704ZM41.6966 12.148C41.7606 12.26 41.8126 12.424 41.8526 12.64C41.8926 12.848 41.9126 13.036 41.9126 13.204C41.9126 13.516 41.8446 13.96 41.7086 14.536C41.1566 15.544 40.3406 16.048 39.2606 16.048C38.8606 16.048 38.4526 15.916 38.0366 15.652C37.6206 15.388 37.3326 15.084 37.1726 14.74C36.9566 14.052 36.8486 13.616 36.8486 13.432C36.8486 13.112 36.9166 12.772 37.0526 12.412C37.1966 12.052 37.3766 11.74 37.5926 11.476C37.7286 11.292 37.9726 11.136 38.3246 11.008C38.6766 10.872 38.9966 10.804 39.2846 10.804C39.8446 10.804 40.3206 10.912 40.7126 11.128C41.1046 11.336 41.4326 11.676 41.6966 12.148ZM40.6526 14.08C40.6926 13.976 40.7126 13.708 40.7126 13.276C40.7126 13.044 40.6686 12.816 40.5806 12.592C40.5006 12.368 40.3806 12.176 40.2206 12.016C40.2046 12 40.1606 11.976 40.0886 11.944C40.0166 11.904 39.9166 11.868 39.7886 11.836C39.6686 11.796 39.5286 11.776 39.3686 11.776C38.9206 11.776 38.5926 11.956 38.3846 12.316C38.1766 12.676 38.0726 13.084 38.0726 13.54C38.0726 13.62 38.0926 13.772 38.1326 13.996C38.1806 14.22 38.2206 14.36 38.2526 14.416C38.2766 14.472 38.3366 14.552 38.4326 14.656C38.5366 14.752 38.6606 14.84 38.8046 14.92C38.9566 14.992 39.1126 15.028 39.2726 15.028C39.6326 15.028 39.9206 14.944 40.1366 14.776C40.3526 14.6 40.5246 14.368 40.6526 14.08ZM48.5572 15.076C48.5972 15.092 48.6612 15.112 48.7492 15.136C48.8372 15.16 48.9012 15.184 48.9412 15.208C48.9812 15.232 49.0012 15.268 49.0012 15.316C49.0092 15.508 48.9372 15.668 48.7852 15.796C48.6412 15.916 48.4692 15.976 48.2692 15.976C47.9572 15.976 47.7132 15.892 47.5372 15.724C47.3612 15.556 47.2332 15.3 47.1532 14.956C47.1212 14.82 47.1052 14.632 47.1052 14.392C47.1052 14.256 47.1132 14.036 47.1292 13.732C47.1452 13.412 47.1532 13.156 47.1532 12.964C47.1532 12.684 47.0732 12.44 46.9132 12.232C46.7612 12.016 46.5452 11.908 46.2652 11.908C46.0972 11.908 45.9212 11.96 45.7372 12.064C45.5532 12.16 45.4252 12.28 45.3532 12.424C45.2332 12.656 45.1492 12.908 45.1012 13.18C45.0132 13.66 44.9692 14.16 44.9692 14.68C44.9692 14.928 44.9732 15.12 44.9812 15.256C44.9812 15.288 44.9812 15.352 44.9812 15.448C44.9892 15.536 44.9812 15.62 44.9572 15.7C44.9412 15.772 44.9092 15.84 44.8612 15.904C44.8212 15.944 44.7572 15.976 44.6692 16C44.5892 16.032 44.5132 16.048 44.4412 16.048C44.3292 16.048 44.1892 16 44.0212 15.904C43.8532 15.808 43.7572 15.7 43.7332 15.58L43.7212 15.376C43.7212 15.304 43.7292 15.22 43.7452 15.124C43.8412 14.564 43.8892 14.076 43.8892 13.66C43.8892 13.476 43.8852 13.332 43.8772 13.228L43.8652 12.664C43.8652 12.472 43.8172 12.288 43.7212 12.112C43.6252 11.928 43.5132 11.836 43.3852 11.836C43.3452 11.836 43.2892 11.852 43.2172 11.884C43.1452 11.908 43.0852 11.92 43.0372 11.92C42.9572 11.92 42.8692 11.88 42.7732 11.8C42.6852 11.72 42.6412 11.636 42.6412 11.548C42.6412 11.38 42.6972 11.244 42.8092 11.14C42.9292 11.044 43.0452 10.968 43.1572 10.912C43.2772 10.856 43.4132 10.828 43.5652 10.828C43.6932 10.828 43.7972 10.84 43.8772 10.864C43.9572 10.888 44.0652 10.94 44.2012 11.02C44.2732 11.06 44.3572 11.148 44.4532 11.284C44.5492 11.42 44.6292 11.612 44.6932 11.86C44.9012 11.476 45.1572 11.208 45.4612 11.056C45.7732 10.896 46.1692 10.816 46.6492 10.816C46.8332 10.816 47.0292 10.876 47.2372 10.996C47.4532 11.116 47.6372 11.256 47.7892 11.416C47.9332 11.592 48.0532 11.812 48.1492 12.076C48.2452 12.332 48.2932 12.564 48.2932 12.772C48.2932 12.892 48.2852 13.088 48.2692 13.36C48.2452 13.576 48.2332 13.804 48.2332 14.044C48.2332 14.604 48.3412 14.948 48.5572 15.076ZM49.7504 13.252C49.7504 12.764 49.8584 12.36 50.0744 12.04C50.2904 11.712 50.5904 11.404 50.9744 11.116C51.0864 11.036 51.2744 10.968 51.5384 10.912C51.8024 10.848 52.0344 10.816 52.2344 10.816C52.4744 10.816 52.7264 10.868 52.9904 10.972C53.2624 11.068 53.4824 11.18 53.6504 11.308C53.9464 11.524 54.1504 11.776 54.2624 12.064C54.3744 12.344 54.4304 12.68 54.4304 13.072C54.4304 13.24 54.3344 13.404 54.1424 13.564C53.9584 13.716 53.7584 13.792 53.5424 13.792L53.0864 13.78C52.8544 13.78 52.5224 13.788 52.0904 13.804L51.8384 13.816C51.6624 13.832 51.5304 13.84 51.4424 13.84C51.3144 13.84 51.1384 13.824 50.9144 13.792C50.9464 14.168 51.0864 14.464 51.3344 14.68C51.5824 14.888 51.8504 14.992 52.1384 14.992C52.6424 14.992 52.9944 14.892 53.1944 14.692C53.3624 14.572 53.4744 14.496 53.5304 14.464C53.5864 14.432 53.6744 14.416 53.7944 14.416C53.9224 14.416 54.0344 14.476 54.1304 14.596C54.2264 14.716 54.2744 14.836 54.2744 14.956C54.2744 15.092 54.1904 15.232 54.0224 15.376C53.8624 15.512 53.6424 15.656 53.3624 15.808C53.2104 15.872 53.0024 15.928 52.7384 15.976C52.4744 16.024 52.2544 16.048 52.0784 16.048C51.7984 16.048 51.4864 15.968 51.1424 15.808C50.7984 15.64 50.5424 15.456 50.3744 15.256C50.2064 15.056 50.0584 14.772 49.9304 14.404C49.8104 14.036 49.7504 13.652 49.7504 13.252ZM52.1384 12.928C52.7064 12.928 53.1224 12.908 53.3864 12.868C53.3704 12.636 53.2984 12.448 53.1704 12.304C53.0424 12.152 52.8664 12.024 52.6424 11.92C52.5704 11.888 52.5064 11.864 52.4504 11.848C52.3944 11.832 52.3304 11.824 52.2584 11.824C51.8904 11.824 51.5784 11.924 51.3224 12.124C51.0744 12.324 50.9264 12.58 50.8784 12.892C51.2784 12.916 51.6984 12.928 52.1384 12.928ZM56.8737 18.448C56.4337 18.448 56.1137 18.368 55.9137 18.208C55.7217 18.056 55.6257 17.888 55.6257 17.704C55.6257 17.424 55.7577 17.284 56.0217 17.284C56.1017 17.284 56.2057 17.308 56.3337 17.356C56.4617 17.412 56.5817 17.44 56.6937 17.44C56.8697 17.44 57.0137 17.324 57.1257 17.092C57.2377 16.86 57.3497 16.484 57.4617 15.964C57.2137 15.676 56.9097 15.22 56.5497 14.596C56.1977 13.972 55.8937 13.36 55.6377 12.76C55.3817 12.152 55.2537 11.72 55.2537 11.464C55.2537 11.264 55.3217 11.116 55.4577 11.02C55.6017 10.924 55.7657 10.876 55.9497 10.876C56.0937 10.876 56.2057 10.904 56.2857 10.96C56.3657 11.008 56.4217 11.1 56.4537 11.236C56.6457 11.916 56.8497 12.512 57.0657 13.024C57.2897 13.536 57.5737 14.092 57.9177 14.692C58.0537 14.38 58.2337 13.848 58.4577 13.096C58.7057 12.256 58.9137 11.66 59.0817 11.308C59.1537 11.164 59.2417 11.048 59.3457 10.96C59.4577 10.872 59.5817 10.828 59.7177 10.828C59.8537 10.828 59.9977 10.88 60.1497 10.984C60.3097 11.08 60.3897 11.196 60.3897 11.332C60.3897 11.412 60.3617 11.508 60.3057 11.62C59.9937 12.34 59.7177 13.02 59.4777 13.66C59.2457 14.292 59.0217 14.988 58.8057 15.748C58.6777 16.172 58.5417 16.576 58.3977 16.96C58.2617 17.344 58.1657 17.58 58.1097 17.668C57.9497 17.892 57.7697 18.076 57.5697 18.22C57.3697 18.372 57.1377 18.448 56.8737 18.448ZM67.6587 13.576C67.6587 14.024 67.4867 14.452 67.1427 14.86C66.8067 15.26 66.3787 15.576 65.8587 15.808C65.6347 15.88 65.3507 15.94 65.0067 15.988C64.6627 16.028 64.3147 16.052 63.9627 16.06C63.2747 16.06 62.6347 15.964 62.0427 15.772C61.9387 15.748 61.8187 15.68 61.6827 15.568C61.5467 15.456 61.4827 15.308 61.4907 15.124V14.716C61.4907 14.268 61.4787 13.836 61.4547 13.42C61.4387 12.876 61.4307 12.46 61.4307 12.172L61.4187 10.816C61.4187 10.336 61.4347 9.852 61.4667 9.364C61.4747 9.116 61.5667 8.908 61.7427 8.74C61.9267 8.564 62.1547 8.456 62.4267 8.416C62.5307 8.408 62.7187 8.404 62.9907 8.404L64.1427 8.416C64.6947 8.416 65.1867 8.488 65.6187 8.632C66.0507 8.776 66.4227 9.008 66.7347 9.328C66.8387 9.448 66.9227 9.608 66.9867 9.808C67.0507 10 67.0827 10.188 67.0827 10.372C67.0587 11.02 66.6867 11.548 65.9667 11.956C66.5427 12.028 66.9667 12.208 67.2387 12.496C67.5187 12.784 67.6587 13.144 67.6587 13.576ZM63.1227 11.668C63.2027 11.66 63.3307 11.656 63.5067 11.656H64.0467C64.2867 11.656 64.4547 11.648 64.5507 11.632C65.3667 11.448 65.7747 11.124 65.7747 10.66C65.7747 10.54 65.7547 10.412 65.7147 10.276C65.6827 10.14 65.6387 10.044 65.5827 9.988C65.3747 9.788 65.1787 9.66 64.9947 9.604C64.8107 9.54 64.5387 9.508 64.1787 9.508C63.4827 9.508 62.9827 9.544 62.6787 9.616L62.6907 11.68L63.1227 11.668ZM63.6747 15.052C64.5067 15.052 65.1587 14.948 65.6307 14.74C66.1107 14.532 66.3507 14.124 66.3507 13.516C66.3507 13.276 66.1747 13.08 65.8227 12.928C65.4707 12.768 65.0867 12.688 64.6707 12.688C64.1587 12.688 63.7987 12.7 63.5907 12.724C63.4147 12.74 63.2947 12.748 63.2307 12.748C63.1107 12.748 63.0267 12.744 62.9787 12.736C62.9387 12.736 62.8907 12.736 62.8347 12.736C62.7867 12.728 62.7347 12.728 62.6787 12.736L62.6907 13.132C62.6987 13.228 62.7107 13.492 62.7267 13.924C62.7507 14.348 62.7547 14.648 62.7387 14.824C62.9227 14.904 63.0827 14.964 63.2187 15.004C63.3547 15.036 63.5067 15.052 63.6747 15.052ZM68.6767 13.288C68.6767 13 68.7287 12.732 68.8327 12.484C68.9367 12.228 69.0887 11.964 69.2887 11.692C69.4887 11.42 69.7647 11.208 70.1167 11.056C70.4687 10.896 70.8527 10.816 71.2687 10.816C71.5887 10.816 71.8967 10.884 72.1927 11.02C72.4967 11.148 72.7687 11.308 73.0087 11.5C73.0407 11.556 73.0967 11.66 73.1767 11.812C73.2567 11.956 73.3127 12.088 73.3447 12.208C73.3847 12.328 73.4047 12.452 73.4047 12.58C73.4047 13.116 73.2087 13.476 72.8167 13.66C72.4247 13.836 71.9287 13.924 71.3287 13.924C70.7287 13.924 70.2407 13.884 69.8647 13.804C69.8807 13.956 69.9207 14.108 69.9847 14.26C70.0487 14.412 70.1247 14.528 70.2127 14.608C70.3727 14.76 70.5287 14.86 70.6807 14.908C70.8407 14.948 71.0527 14.968 71.3167 14.968C71.7167 14.968 72.0287 14.892 72.2527 14.74C72.4607 14.604 72.6207 14.536 72.7327 14.536C72.8847 14.536 73.0007 14.584 73.0807 14.68C73.1607 14.768 73.2007 14.884 73.2007 15.028C73.2007 15.332 73.0047 15.58 72.6127 15.772C72.2287 15.964 71.7927 16.06 71.3047 16.06C70.9207 16.06 70.5407 15.992 70.1647 15.856C69.7887 15.72 69.4887 15.528 69.2647 15.28C69.1127 15.024 68.9767 14.712 68.8567 14.344C68.7367 13.976 68.6767 13.624 68.6767 13.288ZM71.3167 11.8C71.1407 11.8 70.9567 11.832 70.7647 11.896C70.5807 11.952 70.4367 12.04 70.3327 12.16C70.2047 12.296 70.1087 12.42 70.0447 12.532C69.9887 12.644 69.9527 12.784 69.9367 12.952C70.0247 12.952 70.1087 12.956 70.1887 12.964C70.2687 12.972 70.3447 12.98 70.4167 12.988C70.7687 13.02 71.0327 13.036 71.2087 13.036C71.5607 13.036 71.8287 12.984 72.0127 12.88C72.2047 12.776 72.3007 12.636 72.3007 12.46C72.3007 12.292 72.1927 12.14 71.9767 12.004C71.7687 11.868 71.5487 11.8 71.3167 11.8ZM74.4658 13.456C74.4658 13.152 74.5218 12.848 74.6338 12.544C74.7458 12.232 74.8938 11.948 75.0778 11.692C75.2618 11.436 75.5538 11.228 75.9538 11.068C76.3538 10.9 76.7098 10.816 77.0218 10.816C77.3418 10.816 77.6658 10.86 77.9938 10.948C78.3298 11.036 78.5618 11.172 78.6898 11.356C78.9858 11.772 79.1338 12.18 79.1338 12.58C79.1338 12.796 79.0858 12.98 78.9898 13.132C78.9018 13.284 78.7738 13.448 78.6058 13.624C78.4698 13.768 78.2538 13.864 77.9578 13.912C77.6698 13.96 77.3818 13.984 77.0938 13.984C76.9098 13.984 76.6858 13.968 76.4218 13.936C76.1578 13.896 75.9018 13.848 75.6538 13.792C75.6698 13.952 75.7098 14.108 75.7738 14.26C75.8378 14.412 75.9138 14.528 76.0018 14.608C76.1618 14.76 76.3258 14.856 76.4938 14.896C76.6698 14.936 76.8938 14.956 77.1658 14.956C77.4538 14.956 77.7218 14.908 77.9698 14.812C78.1698 14.74 78.3338 14.704 78.4618 14.704C78.6138 14.704 78.7298 14.752 78.8098 14.848C78.8898 14.936 78.9298 15.052 78.9298 15.196C78.9298 15.396 78.8138 15.56 78.5818 15.688C78.3498 15.816 78.0818 15.912 77.7778 15.976C77.4818 16.032 77.2418 16.06 77.0578 16.06C76.6818 16.06 76.3178 15.992 75.9658 15.856C75.6138 15.72 75.3218 15.528 75.0898 15.28C74.8978 15.056 74.7458 14.788 74.6338 14.476C74.5218 14.156 74.4658 13.816 74.4658 13.456ZM77.0818 11.836C76.9058 11.836 76.7298 11.872 76.5538 11.944C76.3778 12.008 76.2338 12.1 76.1218 12.22C75.9778 12.372 75.8778 12.496 75.8218 12.592C75.7738 12.68 75.7418 12.804 75.7258 12.964C75.9258 13.028 76.3418 13.06 76.9738 13.06C77.3178 13.06 77.5818 13.008 77.7658 12.904C77.9578 12.8 78.0538 12.664 78.0538 12.496C78.0538 12.328 77.9498 12.176 77.7418 12.04C77.5338 11.904 77.3138 11.836 77.0818 11.836Z" fill="white"/>
<defs>
<clipPath id="clip0_748_1031">
<rect width="24" height="24" fill="white"/>
</clipPath>
</defs>
</svg>
