<svg width="18" height="18" viewBox="0 0 18 18" fill="none" xmlns="http://www.w3.org/2000/svg">
<circle cx="9" cy="9" r="9" fill="white"/>
<g clip-path="url(#clip0_789_668)">
<path d="M7.25691 7.67105C7.21233 7.68189 7.17161 7.70485 7.13921 7.73742L5.67458 9.20847C5.64361 9.23957 5.62134 9.27833 5.61003 9.32085C5.59871 9.36337 5.59874 9.40817 5.61012 9.45073L6.14922 11.4631C6.16062 11.5057 6.18298 11.5445 6.21405 11.5757C6.24511 11.6069 6.28379 11.6294 6.3262 11.6408L8.32993 12.1822C8.37233 12.1936 8.41696 12.1937 8.45933 12.1823C8.50171 12.171 8.54034 12.1486 8.57132 12.1175L10.036 10.6466C10.067 10.6155 10.0893 10.5767 10.1006 10.5341C10.1119 10.4916 10.1118 10.4467 10.1004 10.4042L9.56131 8.39179C9.54989 8.34924 9.52753 8.31044 9.49647 8.27927C9.46542 8.2481 9.42675 8.22567 9.38438 8.21423L7.3806 7.67273C7.34016 7.6617 7.29762 7.66126 7.25691 7.67105ZM7.39118 8.19509L9.11621 8.66119L9.58033 10.3936L8.31935 11.6598L6.59436 11.1939L6.13025 9.46143L7.39118 8.19509Z" fill="#FFCC4B"/>
<path d="M10.7335 6.73844C10.6889 6.74927 10.6482 6.77224 10.6158 6.80481L9.15115 8.27586C9.12017 8.30696 9.0979 8.34572 9.08659 8.38824C9.07527 8.43076 9.0753 8.47555 9.08668 8.51811L9.62578 10.5305C9.63718 10.5731 9.65954 10.6119 9.69061 10.6431C9.72168 10.6743 9.76036 10.6968 9.80276 10.7082L11.8065 11.2495C11.8489 11.261 11.8935 11.2611 11.9359 11.2497C11.9783 11.2383 12.0169 11.216 12.0479 11.1848L13.5126 9.71398C13.5436 9.68286 13.5658 9.64406 13.5771 9.60151C13.5884 9.55895 13.5884 9.51413 13.577 9.47154L13.0379 7.45917C13.0264 7.41663 13.0041 7.37782 12.973 7.34666C12.942 7.31549 12.9033 7.29306 12.8609 7.28162L10.8572 6.74011C10.8167 6.72908 10.7742 6.72865 10.7335 6.73844ZM10.8677 7.26248L12.5928 7.72857L13.0569 9.46101L11.7959 10.7272L10.0709 10.2613L9.60682 8.52882L10.8677 7.26248Z" fill="#FFCC4B"/>
<path d="M8.19441 4.20132C8.14983 4.21216 8.10911 4.23513 8.07671 4.2677L6.61208 5.73875C6.5811 5.76985 6.55884 5.80861 6.54753 5.85113C6.53621 5.89366 6.53624 5.93844 6.54762 5.981L7.08672 7.99337C7.09812 8.03596 7.12048 8.0748 7.15154 8.106C7.18261 8.1372 7.22129 8.15967 7.2637 8.17112L9.26743 8.71244C9.30983 8.7239 9.35446 8.72395 9.39683 8.7126C9.43921 8.70124 9.47783 8.67887 9.50882 8.64774L10.9735 7.17687C11.0045 7.14574 11.0268 7.10696 11.0381 7.0644C11.0494 7.02184 11.0493 6.97702 11.0379 6.93444L10.4988 4.92207C10.4874 4.87952 10.465 4.84071 10.434 4.80954C10.4029 4.77838 10.3643 4.75595 10.3219 4.74451L8.3181 4.203C8.27766 4.19197 8.23512 4.19153 8.19441 4.20132ZM8.32868 4.72537L10.0537 5.19146L10.5178 6.9239L9.25685 8.19007L7.53186 7.72415L7.06776 5.99171L8.32868 4.72537Z" fill="#FFCC4B"/>
<path d="M11.6695 3.27017C11.6249 3.28101 11.5842 3.30397 11.5518 3.33654L10.0871 4.80759C10.0562 4.83869 10.0339 4.87745 10.0226 4.91997C10.0113 4.9625 10.0113 5.00729 10.0227 5.04985L10.5618 7.06222C10.5732 7.10481 10.5955 7.14365 10.6266 7.17485C10.6577 7.20605 10.6963 7.22851 10.7388 7.23996L12.7425 7.78128C12.7849 7.79274 12.8295 7.79279 12.8719 7.78144C12.9143 7.77008 12.9529 7.74772 12.9839 7.71658L14.4485 6.24571C14.4795 6.21459 14.5018 6.1758 14.5131 6.13324C14.5244 6.09068 14.5244 6.04586 14.513 6.00328L13.9739 3.99091C13.9624 3.94836 13.9401 3.90956 13.909 3.87839C13.878 3.84722 13.8393 3.82479 13.7969 3.81335L11.7932 3.27185C11.7527 3.26082 11.7102 3.26038 11.6695 3.27017ZM11.8037 3.79421L13.5288 4.26031L13.9929 5.99274L12.7319 7.25891L11.0069 6.79299L10.5428 5.06055L11.8037 3.79421ZM9.79922 10.2173C9.75464 10.2281 9.71392 10.2511 9.68152 10.2837L8.2169 11.7547C8.18592 11.7858 8.16365 11.8246 8.15234 11.8671C8.14102 11.9096 8.14105 11.9544 8.15243 11.997L8.69153 14.0093C8.70293 14.0519 8.72529 14.0908 8.75636 14.122C8.78743 14.1532 8.82611 14.1756 8.86851 14.1871L10.8722 14.7284C10.9146 14.7398 10.9593 14.7399 11.0016 14.7285C11.044 14.7172 11.0826 14.6948 11.1136 14.6637L12.5783 13.1928C12.6093 13.1617 12.6316 13.1229 12.6429 13.0803C12.6542 13.0378 12.6541 12.993 12.6427 12.9504L12.1036 10.938C12.0922 10.8955 12.0698 10.8567 12.0388 10.8255C12.0077 10.7943 11.9691 10.7719 11.9267 10.7605L9.92292 10.219C9.88247 10.2079 9.83994 10.2075 9.79922 10.2173ZM9.93349 10.7413L11.6585 11.2074L12.1226 12.9398L10.8617 14.206L9.13668 13.7401L8.67257 12.0077L9.93349 10.7413ZM4.71784 5.13323C4.67326 5.14407 4.63254 5.16704 4.60015 5.19961L3.13552 6.67066C3.10454 6.70176 3.08228 6.74052 3.07096 6.78304C3.05965 6.82556 3.05968 6.87035 3.07106 6.91291L3.61016 8.92528C3.62156 8.96787 3.64392 9.00671 3.67498 9.03791C3.70605 9.06911 3.74473 9.09157 3.78714 9.10302L5.79086 9.64435C5.83326 9.65581 5.8779 9.65586 5.92027 9.6445C5.96265 9.63315 6.00127 9.61078 6.03226 9.57965L7.49693 8.10878C7.52793 8.07765 7.55021 8.03887 7.56152 7.99631C7.57282 7.95375 7.57277 7.90892 7.56135 7.86634L7.02225 5.85398C7.01083 5.81143 6.98846 5.77262 6.95741 5.74145C6.92635 5.71029 6.88769 5.68786 6.84532 5.67641L4.84154 5.13491C4.8011 5.12388 4.75856 5.12344 4.71784 5.13323ZM4.85212 5.65728L6.57715 6.12337L7.04126 7.85581L5.78029 9.12198L4.0553 8.65606L3.59119 6.92362L4.85212 5.65728ZM14.3771 10.426C14.3167 10.4289 14.2593 10.4534 14.2156 10.4953C14.2156 10.4953 14.0098 10.6916 13.7921 10.9363C13.6832 11.0587 13.5705 11.1933 13.4756 11.3276C13.3806 11.4618 13.2993 11.5876 13.2633 11.7446C13.1534 12.2248 13.4035 12.7282 13.8668 12.8713C14.3301 13.0144 14.807 12.6963 14.9169 12.2162C14.9528 12.0591 14.9361 11.9091 14.9113 11.74C14.8866 11.5709 14.8463 11.3904 14.8043 11.2224C14.7204 10.8864 14.6262 10.5986 14.6262 10.5986C14.6092 10.5466 14.5757 10.5015 14.5307 10.4704C14.4857 10.4392 14.4317 10.4236 14.3771 10.426ZM14.2673 11.1633C14.2905 11.2453 14.2949 11.2468 14.3189 11.3432C14.3584 11.5012 14.395 11.6691 14.4158 11.812C14.4367 11.9549 14.434 12.0814 14.4287 12.1045C14.3737 12.3448 14.1948 12.449 14.0144 12.3933C13.8341 12.3376 13.6964 12.0966 13.7514 11.8563C13.7567 11.8332 13.8063 11.7275 13.8843 11.6173C13.9623 11.5071 14.0647 11.383 14.1657 11.2694C14.2177 11.2111 14.2196 11.2137 14.2673 11.1633ZM4.40137 9.76629C4.35015 9.76818 4.30075 9.78574 4.25983 9.8166C4.2189 9.84745 4.18844 9.89012 4.17253 9.93884C4.17253 9.93884 4.07834 10.2266 3.99444 10.5626C3.95249 10.7306 3.91303 10.9111 3.88833 11.0803C3.86362 11.2494 3.84686 11.3994 3.88279 11.5564C3.99268 12.0365 4.46957 12.3546 4.93286 12.2115C5.39617 12.0684 5.64622 11.565 5.53633 11.0849C5.5004 10.9279 5.41907 10.8021 5.3241 10.6678C5.22914 10.5335 5.1165 10.3989 5.00761 10.2766C4.78982 10.0318 4.58407 9.8355 4.58407 9.8355C4.55981 9.81231 4.53113 9.79423 4.49974 9.78235C4.46836 9.77046 4.4349 9.765 4.40137 9.76629ZM4.5324 10.5036C4.58005 10.5539 4.58197 10.5513 4.6339 10.6097C4.73498 10.7233 4.83736 10.8473 4.91533 10.9575C4.99331 11.0678 5.04292 11.1734 5.04821 11.1965C5.1032 11.4368 4.96465 11.6779 4.7843 11.7336C4.60396 11.7893 4.42591 11.6851 4.37092 11.4447C4.36563 11.4216 4.36297 11.2951 4.38384 11.1522C4.40471 11.0094 4.44129 10.8423 4.48072 10.6844C4.50488 10.5876 4.50914 10.5858 4.5324 10.5036Z" fill="#FFCC4B"/>
</g>
<defs>
<clipPath id="clip0_789_668">
<rect width="12" height="12" fill="white" transform="translate(3 3)"/>
</clipPath>
</defs>
</svg>
